<?xml version="1.0" standalone="no"?>
<!DOCTYPE svg PUBLIC "-//W3C//DTD SVG 20010904//EN"
 "http://www.w3.org/TR/2001/REC-SVG-20010904/DTD/svg10.dtd">
<svg version="1.0" xmlns="http://www.w3.org/2000/svg"
 width="227.000000pt" height="228.000000pt" viewBox="0 0 227.000000 228.000000"
 preserveAspectRatio="xMidYMid meet">

<g transform="translate(0.000000,228.000000) scale(0.100000,-0.100000)"
fill="#000000" stroke="none">
<path d="M960 1805 c-115 -25 -224 -88 -320 -185 -98 -98 -149 -184 -180 -306
-11 -43 -20 -80 -20 -84 0 -14 141 -70 233 -94 181 -47 297 -60 527 -60 223 0
330 11 523 56 l89 20 -7 52 c-22 169 -83 296 -199 411 -91 90 -160 134 -268
172 -91 33 -274 41 -378 18z m481 -92 c84 -42 202 -151 238 -220 11 -23 21
-45 21 -48 0 -3 -39 34 -87 82 -49 49 -131 117 -183 152 -113 75 -108 71 -83
71 11 0 54 -17 94 -37z"/>
<path d="M356 1724 c-115 -67 -227 -179 -273 -271 -32 -65 -36 -83 -36 -147 0
-92 29 -157 104 -234 91 -93 226 -160 463 -232 71 -22 131 -42 135 -46 3 -4
-47 -4 -111 0 l-117 6 21 -37 c37 -63 167 -187 242 -228 97 -54 212 -86 316
-87 l85 -1 50 -44 c58 -51 166 -107 246 -127 65 -16 239 -32 239 -22 0 4 -19
29 -42 57 -54 62 -115 162 -130 213 -11 37 -11 40 12 55 61 40 190 179 190
206 0 4 -49 6 -110 3 -105 -4 -142 4 -82 18 227 55 430 135 530 210 144 107
193 271 124 419 -35 73 -136 185 -226 249 -60 43 -118 76 -132 76 -4 0 36 -44
89 -98 122 -124 152 -183 144 -278 -4 -49 -12 -75 -37 -115 -169 -263 -837
-353 -1459 -198 -253 64 -390 183 -390 339 0 96 41 163 170 280 50 44 84 80
77 80 -7 0 -48 -21 -92 -46z"/>
</g>
</svg>
