<?xml version="1.0" standalone="no"?>
<!DOCTYPE svg PUBLIC "-//W3C//DTD SVG 20010904//EN"
 "http://www.w3.org/TR/2001/REC-SVG-20010904/DTD/svg10.dtd">
<svg version="1.0" xmlns="http://www.w3.org/2000/svg"
 width="513.000000pt" height="158.000000pt" viewBox="0 0 513.000000 158.000000"
 preserveAspectRatio="xMidYMid meet">

<g transform="translate(0.000000,158.000000) scale(0.100000,-0.100000)"
fill="#000000" stroke="none">
<path d="M719 1232 c-163 -43 -302 -187 -338 -349 -10 -50 -8 -53 66 -82 118
-47 245 -65 448 -65 114 -1 213 4 248 12 31 6 82 17 113 23 l57 11 -6 59 c-12
138 -122 290 -257 356 -110 54 -216 65 -331 35z m337 -56 c59 -27 116 -75 156
-130 47 -65 32 -63 -39 5 -38 36 -96 82 -130 104 -35 21 -63 39 -63 41 0 10
29 2 76 -20z"/>
<path d="M290 1164 c-174 -113 -233 -254 -160 -380 49 -86 158 -152 345 -209
121 -37 130 -49 32 -41 l-79 7 19 -31 c32 -55 120 -130 196 -166 58 -27 90
-36 157 -41 77 -5 89 -9 126 -39 63 -52 146 -85 237 -95 44 -5 82 -7 85 -4 3
3 -6 18 -21 33 -31 33 -97 141 -97 159 0 8 32 45 70 84 38 38 70 74 70 79 0 6
-31 10 -70 10 -78 0 -93 14 -27 25 79 14 241 77 309 120 196 127 174 329 -51
480 -38 25 -72 45 -77 45 -4 0 23 -29 59 -64 74 -71 97 -113 97 -181 0 -57
-17 -91 -71 -139 -82 -75 -213 -117 -424 -136 -137 -12 -226 -8 -388 16 -245
38 -367 99 -412 206 -32 79 -9 143 86 236 35 34 59 62 54 62 -6 0 -35 -16 -65
-36z"/>
<path d="M3266 946 c-175 -65 -217 -288 -76 -408 93 -81 229 -77 317 8 24 22
43 45 43 51 0 6 -20 21 -46 34 -42 22 -46 23 -55 6 -25 -44 -114 -60 -170 -32
-118 61 -70 245 64 245 43 0 91 -22 105 -47 9 -15 14 -15 56 8 25 13 46 27 46
30 0 16 -46 61 -84 84 -54 32 -145 41 -200 21z"/>
<path d="M4815 941 c-49 -23 -75 -65 -75 -124 0 -61 33 -99 108 -127 109 -40
112 -41 112 -65 0 -51 -108 -54 -143 -5 -13 18 -15 18 -55 -6 -23 -14 -42 -28
-42 -31 0 -2 10 -19 22 -35 29 -41 91 -68 158 -68 124 0 199 92 156 194 -17
41 -42 59 -127 92 -78 29 -98 46 -79 69 18 21 70 19 95 -5 l22 -20 41 22 c23
13 42 28 42 34 0 16 -62 72 -93 83 -42 16 -97 13 -142 -8z"/>
<path d="M1840 720 l0 -230 55 0 54 0 3 128 3 127 55 -89 c30 -49 60 -91 66
-93 6 -2 35 37 65 87 29 49 57 90 61 90 4 0 8 -56 8 -125 l0 -125 28 -1 c15
-1 37 -3 50 -4 l22 -2 0 233 0 234 -54 0 -54 0 -58 -100 c-33 -55 -63 -98 -67
-97 -5 1 -35 45 -66 97 l-57 95 -57 3 -57 3 0 -231z"/>
<path d="M2620 808 c-29 -79 -67 -182 -85 -230 -18 -48 -31 -88 -30 -90 2 -2
28 -1 58 0 53 4 55 5 70 43 l15 39 85 0 84 0 15 -39 c15 -38 17 -39 72 -43 31
-1 56 -1 56 2 0 3 -37 106 -83 230 l-83 225 -61 3 -60 3 -53 -143z m138 -75
c11 -29 17 -54 14 -57 -3 -4 -23 -6 -45 -6 -36 0 -39 2 -33 23 8 33 37 100 41
96 2 -2 12 -27 23 -56z"/>
<path d="M3760 720 l0 -230 78 -1 c42 0 106 -1 142 -1 l65 0 0 49 0 48 -92 3
-93 3 0 179 0 180 -50 0 -50 0 0 -230z"/>
<path d="M4240 720 l0 -230 73 -1 c39 0 106 -1 147 -1 l75 0 0 49 0 48 -92 3
-93 3 0 39 0 39 83 3 82 3 3 47 3 47 -83 3 -83 3 -3 38 -3 37 90 0 91 0 0 50
0 50 -145 0 -145 0 0 -230z"/>
</g>
</svg>
